<svg xmlns="http://www.w3.org/2000/svg" fill-rule="evenodd" stroke-linejoin="round" stroke-miterlimit="2" clip-rule="evenodd" viewBox="0 0 500 500"><path d="M234.406,40.703L181.963,156.354C181.963,156.354 55.765,170.493 55.765,170.493C49.087,171.241 43.464,175.827 41.387,182.218C39.311,188.609 41.165,195.624 46.128,200.154C46.128,200.154 121.683,269.127 139.913,285.769C139.913,285.769 114.362,410.159 114.362,410.159C113.01,416.742 115.634,423.507 121.07,427.456C126.507,431.406 133.751,431.811 139.594,428.491C139.594,428.491 250,365.752 250,365.752C250,365.752 360.406,428.491 360.406,428.491C366.249,431.811 373.493,431.406 378.93,427.456C384.366,423.507 386.99,416.742 385.638,410.159C385.638,410.159 360.087,285.769 360.087,285.769C360.087,285.769 453.872,200.154 453.872,200.154C458.835,195.624 460.689,188.609 458.613,182.218C456.536,175.827 450.913,171.241 444.235,170.493C444.235,170.493 318.037,156.354 318.037,156.354C318.037,156.354 265.594,40.703 265.594,40.703C262.819,34.583 256.72,30.652 250,30.652C243.28,30.652 237.181,34.583 234.406,40.703ZM250,51.586L303.204,168.914C304.564,171.914 307.403,173.977 310.677,174.343L438.703,188.687L343.558,275.543C341.125,277.764 340.041,281.101 340.704,284.328L366.625,410.52L254.619,346.872C251.755,345.245 248.245,345.245 245.381,346.872L133.375,410.52L159.296,284.328C159.959,281.101 158.875,277.764 156.442,275.543L61.297,188.687L189.323,174.343C192.597,173.977 195.436,171.914 196.796,168.914L250,51.586Z" transform="translate(-28.571 -7.054) scale(1.11429)"/></svg>